<svg width="30" height="30" class="svg-icon svg-icon--rabbit is-dark" xmlns="http://www.w3.org/2000/svg" viewBox="0 0 32 32" xmlns:xlink="http://www.w3.org/1999/xlink"><path class="is-stroke" stroke-linecap="round" stroke-miterlimit="10" fill="none" stroke="#050d18" stroke-width="1" stroke-linejoin="round" d="M12.4,14.5c0,0,1.8,2.4,0.6,6l2,2.3c0,0,1.1,0.4,2.5,0.8s-0.1,1.7-1.1,1.5c-0.9-0.2-1.9-0.3-2.5-0.7L11.5,22c0,0-2.8-1.4-3.4-1.8c-0.6-0.4-1.9-1.9-1.6-4s1.2-3.1,3-4c1.8-0.9,4.7-0.8,6.1,0c1.4,0.8,2.3,1.6,2.6,1.6c0.4,0,1.2-0.1,1.4-0.4c0.2-0.2,0.3-0.5,0.5-0.7c0,0-1.7-0.6-2.4-0.9C17.1,11.4,15.2,9.8,15,9c-0.2-0.8,1.4-0.9,3.1-0.1c1.7,0.8,3.4,2.1,3.6,2.4s1.1-0.2,2.3,0.5c1.2,0.7,2.5,1.8,2.5,3.2c0,1.5-1.4,1.8-2.2,2c-0.9,0.2-2.2,0.1-2.5,0.1l-1.2,1.7"></path><path class="is-stroke" stroke-linecap="round" stroke-miterlimit="10" fill="none" stroke="#050d18" stroke-width="1" stroke-linejoin="round" d="M17.2,7.5C17,6.6,17,5.7,18.4,6.6c1.5,0.9,2.9,2.9,3.4,4.8"></path><path class="is-stroke" stroke-linecap="round" stroke-miterlimit="10" fill="none" stroke="#050d18" stroke-width="1" stroke-linejoin="round" d="M7.3,14c0,0-1-0.9-1.5-1s-1.2,0.2-1.1,1.2c0.1,1,0.5,1.5,1.8,1.9"></path><path class="is-stroke" stroke-linecap="round" stroke-miterlimit="10" fill="none" stroke="#050d18" stroke-width="1" stroke-linejoin="round" d="M11.3,22.5L11,22.6c0,0-1.6,0.1-1.9,0.4c-0.4,0.3,0,1.2,1.5,1.4s2.4-0.9,2.4-0.9"></path><path class="is-stroke" stroke-linecap="round" stroke-miterlimit="10" fill="none" stroke="#050d18" stroke-width="1" stroke-linejoin="round" d="M15.4,22.5c0,0,3-1.5,3.4-1.8c0.4-0.3,1-0.9,1-0.9"></path><path class="is-stroke" stroke-linecap="round" stroke-miterlimit="10" fill="none" stroke="#050d18" stroke-width="1" stroke-linejoin="round" d="M16.4,17.5c0,0-0.7,1.9-0.9,2.2c-0.2,0.3-1.4,1.1-1.9,1.4"></path><circle class="is-stroke" stroke-linecap="round" stroke-miterlimit="10" fill="none" stroke="#050d18" stroke-width="1" stroke-linejoin="round" cx="23.3" cy="13.4" r="0.6"></circle></svg>