
<svg width="25" height="25" viewBox="20 55 220 120" xmlns="http://www.w3.org/2000/svg">
  <g transform="translate(0,280) scale(0.1,-0.1)" fill="currentColor" stroke="none">
    <path d="M2182 2153 c-5 -10 -17 -46 -27 -80 -10 -35 -21 -63 -24 -63 -3 0 -19 8 -36 18 -95 57 -218 80 -308 57 -98 -25 -269 -133 -415 -262 l-43 -38 63 -62 63 -62 75 60 c101 82 229 166 282 185 47 16 112 8 170 -22 l31 -16 -60 -38 c-72 -45 -78 -53 -57 -74 11 -12 36 -16 97 -16 45 0 139 -3 209 -7 115 -5 128 -4 134 11 6 15 -18 109 -98 394 -10 36 -41 44 -56 15z"/>
    <path d="M522 2045 c-98 -47 -172 -121 -220 -222 -33 -71 -37 -87 -40 -178 -4 -114 15 -192 70 -278 96 -150 304 -243 463 -208 108 24 259 120 397 251 l63 59 -62 62 -62 63 -56 -50 c-114 -99 -181 -147 -250 -181 -60 -29 -77 -34 -122 -29 -107 10 -194 73 -241 174 -21 47 -24 64 -20 131 7 118 66 205 170 251 27 12 45 26 43 33 -2 7 -13 45 -25 85 -11 39 -24 72 -28 72 -4 0 -40 -16 -80 -35z"/>
    <path d="M787 2064 c-12 -13 -8 -38 33 -185 76 -271 69 -251 92 -247 17 2 27 19 46 76 22 66 26 72 41 60 94 -78 179 -155 302 -274 287 -278 441 -362 616 -337 195 28 355 176 395 364 18 85 14 89 -87 89 l-85 0 0 -28 c0 -49 -57 -149 -107 -187 -48 -37 -125 -65 -178 -65 -46 0 -160 59 -248 129 -42 34 -148 130 -235 214 -86 84 -185 174 -220 201 l-62 49 68 42 c73 45 93 80 50 89 -42 9 -413 18 -421 10z"/>
  </g>
</svg>

