<svg width="30" height="30" class="svg-icon svg-icon--turtle is-dark" xmlns="http://www.w3.org/2000/svg" viewBox="0 0 32 32" xmlns:xlink="http://www.w3.org/1999/xlink"><path class="is-stroke" stroke-linecap="round" stroke-miterlimit="10" fill="none" stroke="#050d18" stroke-width="1" stroke-linejoin="round" d="M10.3,21c0-1.6-1.8-2.5-3-1.4c-0.8,0.7-1.4,1.6-1.8,2.6h0C5.2,23.1,5.9,24,6.8,24h2c0.7,0,1.2-0.5,1.3-1.1l0,0C10.2,22.3,10.3,21.7,10.3,21L10.3,21z"></path><path class="is-stroke" stroke-linecap="round" stroke-miterlimit="10" fill="none" stroke="#050d18" stroke-width="1" stroke-linejoin="round" d="M10.3,21c0.2,0,0.4,0,0.6,0h1"></path><path class="is-stroke" stroke-linecap="round" stroke-miterlimit="10" fill="none" stroke="#050d18" stroke-width="1" stroke-linejoin="round" d="M21.5,19.4l1.2-0.7c0.3-0.1,0.6-0.4,0.7-0.7l0-0.1c0.3-0.7-0.1-1.5-0.8-1.8l0,0c-0.3-0.1-0.6-0.1-0.9,0l-4.4,1.5c-2.6,0.9-5.3,1-7.9,0.4l-2.9-0.6c-0.4-0.1-0.8,0-1.1,0.2h0c-0.8,0.5-1,1.5-0.4,2.2l0,0c0.2,0.3,0.5,0.5,0.8,0.6h0c0.2,0,0.3,0.1,0.5,0.1"></path><path class="is-stroke" stroke-linecap="round" stroke-miterlimit="10" fill="none" stroke="#050d18" stroke-width="1" stroke-linejoin="round" d="M14,21l1.1-0.1c1.2-0.1,2.4-0.3,3.5-0.6"></path><path class="is-stroke" stroke-linecap="round" stroke-miterlimit="10" fill="none" stroke="#050d18" stroke-width="1" stroke-linejoin="round" d="M21.7,13.4l0.3-0.7c0.5-1.4,1.6-2.4,3-2.9l0,0c0.7-0.3,1.5-0.3,2.2-0.1h0c0.7,0.2,1.3,0.8,1.4,1.5v0c0.1,0.9,0,1.8-0.5,2.6l-0.3,0.7c-0.7,1.4-1.9,2.5-3.4,3.2l-1,0.4"></path><line class="is-stroke" fill="none" stroke="#050d18" stroke-width="1" stroke-linecap="round" stroke-linejoin="round" stroke-miterlimit="10" x1="26" y1="11.2" x2="26" y2="11.9"></line><path class="is-stroke" fill="none" stroke="#050d18" stroke-width="1" stroke-linecap="round" stroke-linejoin="round" stroke-miterlimit="10" d="M22.6,16.1L21.8,14c-1-2.6-3.3-4.6-6-5.2l0,0c-2.8-0.7-5.7,0.1-7.8,2l0,0C7,11.7,6.4,12.8,6.1,14l-0.7,3.6"></path><path class="is-stroke" fill="none" stroke="#050d18" stroke-width="1" stroke-linecap="round" stroke-linejoin="round" stroke-miterlimit="10" d="M9.8,9.9l0.3,0.7c0.3,0.7,0.9,1.2,1.6,1.3l0,0c1.1,0.3,2.2,0.1,3.1-0.4l0.6-0.3"></path><path class="is-stroke" fill="none" stroke="#050d18" stroke-width="1" stroke-linecap="round" stroke-linejoin="round" stroke-miterlimit="10" d="M16.8,9.2c0,0,0,1-0.5,1.3"></path><path class="is-stroke" fill="none" stroke="#050d18" stroke-width="1" stroke-linecap="round" stroke-linejoin="round" stroke-miterlimit="10" d="M15,15c-0.3-0.7,0-1.7,1.2-2.2c1.5-0.7,2.9,0.7,2.6,1.6c-0.3,0.8-0.6,1.5-1.7,1.5C16.3,15.9,15.4,15.6,15,15z"></path><path class="is-stroke" fill="none" stroke="#050d18" stroke-width="1" stroke-linecap="round" stroke-linejoin="round" stroke-miterlimit="10" d="M10.4,18.2c0,0,0.4-0.4,0.2-1.6c-0.2-1.2-1.8-2.7-4.7-1.7"></path><path class="is-stroke" fill="none" stroke="#050d18" stroke-width="1" stroke-linecap="round" stroke-linejoin="round" stroke-miterlimit="10" d="M21.5,19.4c-1.1-0.9-2.8-0.1-2.7,1.3c0,0.6,0.1,1.6,0.2,2.1c0.1,0.6,0.6,1,1.2,1l0,0h1.8c0.9,0,1.5-0.8,1.2-1.6C22.8,21.2,22.2,20,21.5,19.4z"></path></svg>