<svg width="16" height="16" class="svg-icon svg-icon--lesson-s stroke-current fill-current" xmlns="http://www.w3.org/2000/svg" viewBox="0 0 16 16" xmlns:xlink="http://www.w3.org/1999/xlink"><path fill="none" stroke="#050d18" stroke-width="1" stroke-linecap="round" stroke-linejoin="round" stroke-miterlimit="10" class="is-stroke is-dynamic-background" d="M4,0.5h8c0.8,0,1.5,0.7,1.5,1.5v12c0,0.8-0.7,1.5-1.5,1.5H4c-0.8,0-1.5-0.7-1.5-1.5V2C2.5,1.2,3.2,0.5,4,0.5z"></path><path fill="none" stroke="#050d18" stroke-width="1" stroke-linecap="round" stroke-linejoin="round" stroke-miterlimit="10" class="is-stroke is-static-background" d="M5,2.5h6c0.3,0,0.5,0.2,0.5,0.5v2c0,0.3-0.2,0.5-0.5,0.5H5C4.7,5.5,4.5,5.3,4.5,5V3C4.5,2.7,4.7,2.5,5,2.5z"></path><line fill="none" stroke="#050d18" stroke-width="1" stroke-linecap="round" stroke-linejoin="round" stroke-miterlimit="10" class="is-stroke" x1="4.5" y1="8.5" x2="11.5" y2="8.5"></line><line fill="none" stroke="#050d18" stroke-width="1" stroke-linecap="round" stroke-linejoin="round" stroke-miterlimit="10" class="is-stroke" x1="4.5" y1="10.5" x2="11.5" y2="10.5"></line><line fill="none" stroke="#050d18" stroke-width="1" stroke-linecap="round" stroke-linejoin="round" stroke-miterlimit="10" class="is-stroke" x1="4.5" y1="12.5" x2="8.5" y2="12.5"></line></svg>